<?xml version="1.0" encoding="UTF-8" standalone="no"?>
<!-- Created with Inkscape (http://www.inkscape.org/) -->

<svg
   width="96.183708mm"
   height="149.71741mm"
   viewBox="0 0 96.183708 149.71741"
   version="1.1"
   id="svg1"
   xml:space="preserve"
   xmlns="http://www.w3.org/2000/svg"
   xmlns:svg="http://www.w3.org/2000/svg"><defs
     id="defs1" /><g
     id="layer1"
     transform="translate(-64.737123,-49.602133)"><path
       style="fill:#ffffff"
       d="m 82.741223,198.81328 c -0.68412,-1.2783 -2.4781,-11.01282 -3.29553,-17.88229 -2.28038,-19.16373 -1.86875,-39.62088 1.03942,-51.65731 2.92687,-12.11376 7.36925,-18.77978 20.737127,-31.117134 5.62459,-5.19098 7.89869,-7.79768 9.36523,-10.73491 1.08056,-2.1642 1.11521,-2.31471 1.20832,-5.24773 0.0956,-3.01326 0.0939,-3.02367 -0.85097,-4.9354 -1.13613,-2.2988 -2.91011,-4.06971 -5.72628,-5.71632 -2.79833,-1.63618 -5.960147,-2.81786 -14.144177,-5.28615 -10.69277,-3.22494 -13.6,-4.40195 -18.11499,-7.33398 -2.68745,-1.74524 -5.875771,-4.938383 -7.229977,-7.240925 l -0.992274,-1.687155 0.595399,-0.22241 c 0.900262,-0.33629 52.345959,-0.0495 56.157899,0.313055 14.30901,1.360949 22.08328,3.583527 28.87173,8.254105 1.88002,1.29349 5.04592,4.39933 6.35643,6.23584 1.45864,2.04411 3.06432,5.48082 3.68969,7.89725 0.73362,2.8347 0.66952,8.78883 -0.12674,11.77396 -1.67882,6.29371 -5.68342,11.9279 -11.96674,16.836314 -5.03959,3.93683 -8.41894,5.99376 -20.60667,12.54274 -18.28451,9.82504 -25.17524,15.21246 -31.290017,24.46366 -7.48405,11.32282 -10.42765,25.05944 -12.51591,58.40678 -0.13265,2.11829 -0.26896,2.84427 -0.53407,2.84427 -0.19578,0 -0.47788,-0.22782 -0.6269,-0.50626 z m -0.0434,-106.469914 c -3.19549,-1.19599 -4.76592,-3.41777 -4.81536,-6.81256 -0.0635,-4.36003 3.457,-7.50715 7.88642,-7.04999 3.41571,0.35253 5.87495,2.91883 6.15634,6.42434 0.24012,2.99134 -1.23759,5.76722 -3.75425,7.05234 -1.34792,0.68831 -4.13926,0.88511 -5.47315,0.38587 z"
       id="path1" /></g></svg>
